HIERARCHY
ROOT Hips
{
	OFFSET -0.179506 -22.333345 2.821913
	CHANNELS 6 Xposition Yposition Zposition Zrotation Yrotation Xrotation 
	JOINT LeftUpLeg
	{
		OFFSET 6.951974 -9.140623 -0.681533
		CHANNELS 3 Zrotation Yrotation Xrotation
		JOINT LeftLeg
		{
			OFFSET 3.427654 -37.519855 -0.449580
			CHANNELS 3 Zrotation Yrotation Xrotation
			JOINT LeftFoot
			{
				OFFSET -1.359570 -39.796059 -4.369333
				CHANNELS 3 Zrotation Yrotation Xrotation
				JOINT LeftToe
				{
					OFFSET 2.635814 -5.579078 11.928840
					CHANNELS 3 Zrotation Yrotation Xrotation
					End Site
					{
						OFFSET 0.000000 0.000000 0.000000
					}
				}
			}
		}
	}
	JOINT RightUpLeg
	{
		OFFSET -6.767048 -9.052170 -0.431982
		CHANNELS 3 Zrotation Yrotation Xrotation
		JOINT RightLeg
		{
			OFFSET -3.829005 -38.256897 -0.885003
			CHANNELS 3 Zrotation Yrotation Xrotation
			JOINT RightFoot
			{
				OFFSET 1.577377 -39.841461 -4.231180
				CHANNELS 3 Zrotation Yrotation Xrotation
				JOINT RightToe
				{
					OFFSET -2.537174 -4.814398 12.334795
					CHANNELS 3 Zrotation Yrotation Xrotation
					End Site
					{
						OFFSET 0.000000 0.000000 0.000000
					}
				}
			}
		}
	}
	JOINT Spine
	{
		OFFSET -0.253288 10.896323 -2.669631
		CHANNELS 3 Zrotation Yrotation Xrotation
		JOINT Spine1
		{
			OFFSET 0.548704 13.518043 0.109247
			CHANNELS 3 Zrotation Yrotation Xrotation
			JOINT Spine2
			{
				OFFSET 0.145701 5.292222 2.542457
				CHANNELS 3 Zrotation Yrotation Xrotation
				JOINT Neck
				{
					OFFSET -0.277840 21.387037 -4.285703
					CHANNELS 3 Zrotation Yrotation Xrotation
					JOINT Head
					{
						OFFSET 0.515184 6.496960 5.134897
						CHANNELS 3 Zrotation Yrotation Xrotation
						End Site
						{
							OFFSET 0.000000 0.000000 0.000000
						}
					}
				}
				JOINT LeftShoulder
				{
					OFFSET 7.884473 12.174932 -3.408961
					CHANNELS 3 Zrotation Yrotation Xrotation
					JOINT LeftArm
					{
						OFFSET 9.097692 3.046888 -0.886815
						CHANNELS 3 Zrotation Yrotation Xrotation
						JOINT LeftForeArm
						{
							OFFSET 25.961220 -1.277207 -2.745643
							CHANNELS 3 Zrotation Yrotation Xrotation
							JOINT LeftHand
							{
								OFFSET 24.923361 0.898606 -0.117091
								CHANNELS 3 Zrotation Yrotation Xrotation
								End Site
								{
									OFFSET 0.000000 0.000000 0.000000
								}
							}
						}
					}
				}
				JOINT RightShoulder
				{
					OFFSET -8.175920 11.883285 -3.861528
					CHANNELS 3 Zrotation Yrotation Xrotation
					JOINT RightArm
					{
						OFFSET -9.601238 3.255117 -0.914307
						CHANNELS 3 Zrotation Yrotation Xrotation
						JOINT RightForeArm
						{
							OFFSET -25.374195 -1.332924 -2.140099
							CHANNELS 3 Zrotation Yrotation Xrotation
							JOINT RightHand
							{
								OFFSET -25.529810 0.777228 -0.555919
								CHANNELS 3 Zrotation Yrotation Xrotation
								End Site
								{
									OFFSET 0.000000 0.000000 0.000000
								}
							}
						}
					}
				}
			}
		}
	}
}
MOTION
Frames: 7
Frame Time: 0.033333
-9.378158 45.839249 -10.355974 -53.553714 -44.952968 -34.154721 8.124390 0.390602 -5.630402 -1.451185 -0.804851 6.995246 -6.242385 5.904486 16.305164 0.109473 -0.354887 0.082997 -1.536793 -6.418638 -0.182895 0.555767 -3.342284 7.905501 -0.228662 -14.754465 2.224126 0.495532 0.435078 -0.062389 -4.976653 3.135210 7.367133 -0.488320 -0.973009 0.342578 -0.092457 -0.956552 3.916060 3.335456 -11.218195 7.199403 7.768731 -9.025468 -2.618346 -17.184909 -6.011379 7.541886 -14.252344 5.663916 25.994086 -102.895565 -59.944102 123.876471 6.632425 -19.515678 2.461409 1.984072 14.836585 -8.277122 -2.758882 19.068577 -16.761782 -156.231194 43.979402 -140.550431 -16.087765 12.187483 -1.640560 
-9.324574 45.854523 -10.347617 -53.531999 -44.964420 -34.171083 8.094151 0.416839 -5.544921 -1.430596 -0.793679 6.886412 -6.269508 5.933536 16.466844 0.136630 -0.355075 0.064988 -1.554440 -6.372867 -0.169207 0.546822 -3.317465 7.907209 -0.080683 -14.785789 2.366707 0.500348 0.443220 -0.063325 -4.990937 3.119484 7.366738 -0.495934 -0.974409 0.304500 -0.107446 -0.951191 3.989439 3.425764 -11.186662 7.033724 7.735409 -8.994117 -2.709295 -17.113628 -6.137465 7.427275 -14.385125 5.681554 26.040542 -102.496016 -59.818518 123.655762 6.712361 -19.531287 2.831549 2.016653 14.831061 -8.312012 -2.745399 19.010130 -16.645882 -156.393341 43.951034 -140.885944 -16.043725 12.175013 -2.081847 
-9.335608 45.870476 -10.291556 -53.659905 -44.564008 -33.909477 8.006049 0.484699 -5.548246 -1.573434 -0.858864 6.517213 -6.433684 5.747108 16.283381 0.158762 -0.368497 0.044849 -1.585572 -6.359322 -0.102382 0.398786 -3.226449 7.624400 -0.157817 -14.983356 2.189987 0.529357 0.438794 -0.044207 -4.909951 3.112388 7.349649 -0.533215 -0.971422 0.420927 -0.125501 -0.963024 3.879246 3.400614 -11.256404 7.145674 7.671935 -9.032396 -2.657706 -17.091264 -6.308035 7.376168 -14.435978 5.595022 25.993775 -102.255715 -59.696968 123.537171 6.937273 -19.555478 3.109773 1.931250 14.688368 -8.621056 -2.929456 18.907725 -16.943779 -156.785467 43.642907 -141.225832 -16.139011 12.110281 -2.162984 
-9.349367 45.888306 -10.357692 -53.622613 -44.394748 -33.908414 7.964230 0.590186 -5.547280 -1.625627 -0.866551 6.415640 -6.659746 5.665104 16.301884 0.185084 -0.376825 0.027972 -1.579650 -6.446755 -0.023576 0.290899 -3.227387 7.412476 -0.097121 -15.108623 2.103346 0.526397 0.451495 -0.022536 -4.866835 3.113151 7.348833 -0.529889 -1.022271 0.506482 -0.133479 -0.969363 3.796687 3.368468 -11.357654 7.294443 7.654598 -9.010372 -2.645669 -17.013502 -6.407349 7.289717 -14.495952 5.510013 25.954425 -101.666298 -59.593681 123.142565 7.259835 -19.584306 3.247013 1.750352 14.696425 -8.787003 -3.141864 19.059071 -17.129212 -157.284340 43.742861 -141.628755 -16.607798 12.120966 -2.154628 
-9.315135 45.907410 -10.393431 -53.441517 -44.587145 -34.150860 7.899066 0.661242 -5.382892 -1.517645 -1.002790 6.449717 -6.656196 5.927457 16.324970 0.244100 -0.409655 0.011367 -1.573599 -6.428085 -0.012976 0.251406 -3.187119 7.542150 0.106078 -15.127506 2.181175 0.598390 0.494944 0.006420 -4.790164 3.063114 7.350721 -0.544480 -1.016895 0.465115 -0.138533 -0.986562 3.875497 3.496351 -11.319558 7.129925 7.559263 -9.022380 -2.519592 -16.849210 -6.453815 7.189001 -14.699241 5.484471 26.020211 -100.998769 -59.411460 122.612203 7.312009 -19.437906 3.376215 1.546575 14.805766 -8.915750 -3.071651 19.309511 -16.984745 -157.649772 44.078216 -142.019495 -16.486829 11.880548 -2.177422 
-9.408527 45.927055 -10.524449 -53.480365 -44.170311 -34.122659 7.892934 0.796170 -5.549612 -1.706947 -0.936812 6.564232 -6.946713 5.698595 16.273515 0.294254 -0.441173 -0.011156 -1.609882 -6.729978 0.090831 0.160865 -3.294274 7.308773 0.022251 -15.345388 1.913169 0.537103 0.506740 -0.037482 -4.758820 3.147742 7.416720 -0.647421 -1.119275 0.379155 -0.224867 -1.010167 3.904201 3.312444 -11.613006 7.029429 7.702176 -9.338837 -2.440475 -16.957042 -6.556137 7.103143 -14.215880 5.311728 26.016821 -100.933515 -59.443658 122.678009 6.503940 -19.146159 3.688237 1.662632 15.081687 -8.804890 -3.395254 19.338143 -17.097123 -157.672385 43.922200 -141.585120 -16.257426 12.056058 -1.458707 
-9.387207 45.948395 -10.509930 -53.526894 -44.001355 -34.062562 7.867196 0.883983 -5.502563 -1.792997 -0.908017 6.426695 -7.058079 5.673551 16.286020 0.292649 -0.435622 -0.025719 -1.652541 -6.696281 0.146887 0.135351 -3.219679 7.249488 0.048797 -15.441238 1.927463 0.548445 0.502305 -0.031634 -4.726651 3.116053 7.433532 -0.659020 -1.133982 0.395717 -0.227651 -1.023391 3.870543 3.310490 -11.629826 6.987511 7.707805 -9.263795 -2.437896 -16.978986 -6.604574 7.075379 -14.255767 5.267926 26.005030 -100.638058 -59.376657 122.443310 6.429314 -19.108282 3.881529 1.662898 15.034532 -8.894037 -3.535126 19.361224 -17.165432 -157.907838 43.855615 -141.970566 -16.124643 12.000237 -1.716229 
